<?xml version="1.0" encoding="UTF-8"?>
<svg id="Layer_2" data-name="Layer 2" xmlns="http://www.w3.org/2000/svg" xmlns:xlink="http://www.w3.org/1999/xlink" viewBox="0 0 152.26 37.79">
  <defs>
    <style>
      .cls-1 {
        fill: #48514e;
      }

      .cls-2 {
        fill: url(#linear-gradient);
      }
    </style>
    <linearGradient id="linear-gradient" x1="1.99" y1="38.06" x2="34.23" y2=".89" gradientUnits="userSpaceOnUse">
      <stop offset="0" stop-color="#d8af51"/>
      <stop offset="1" stop-color="#294947"/>
    </linearGradient>
  </defs>
  <g id="Layer_2-2" data-name="Layer 2">
    <g>
      <path class="cls-1" d="M46.82,27.43l13.37-17.26h-13.11v-2.35h16.04v2.08l-13.14,17.26h13.14v2.35h-16.3v-2.08Z"/>
      <path class="cls-1" d="M72.46,29.81c-1.14,0-2.18-.22-3.11-.65-.94-.43-1.75-1.03-2.43-1.79s-1.21-1.63-1.59-2.62c-.38-.99-.56-2.04-.56-3.15,0-1.5,.33-2.86,.98-4.09,.66-1.23,1.57-2.22,2.74-2.97,1.17-.75,2.49-1.12,3.98-1.12s2.85,.38,3.98,1.14c1.13,.76,2.01,1.75,2.63,2.97,.63,1.22,.94,2.54,.94,3.96,0,.2,0,.39-.01,.58,0,.18-.02,.32-.04,.42h-12.59c.08,1.05,.36,1.97,.84,2.78s1.1,1.44,1.87,1.9c.76,.46,1.59,.69,2.47,.69s1.8-.24,2.63-.73c.83-.49,1.4-1.14,1.71-1.96l2.14,.61c-.33,.77-.82,1.47-1.46,2.08-.65,.61-1.41,1.09-2.29,1.44s-1.82,.52-2.82,.52Zm-5.18-9.13h10.45c-.08-1.05-.36-1.97-.85-2.76s-1.12-1.42-1.88-1.87c-.76-.45-1.61-.68-2.53-.68s-1.71,.23-2.47,.68c-.76,.45-1.38,1.08-1.87,1.87s-.76,1.72-.84,2.76Z"/>
      <path class="cls-1" d="M95.91,29.5h-2.46v-8.84c0-1.7-.25-2.94-.74-3.74-.49-.8-1.25-1.2-2.27-1.2-.71,0-1.42,.19-2.11,.56-.69,.37-1.31,.87-1.84,1.49-.53,.62-.92,1.34-1.17,2.14v9.58h-2.43V13.65h2.23v3.45c.41-.75,.93-1.4,1.56-1.96s1.36-.99,2.17-1.29c.81-.3,1.66-.45,2.55-.45s1.6,.17,2.19,.5c.59,.33,1.05,.8,1.39,1.39,.34,.6,.58,1.3,.72,2.11,.15,.81,.22,1.7,.22,2.67v9.43Z"/>
      <path class="cls-1" d="M116.81,7.81V29.5h-2.52v-9.9h-11.46v9.9h-2.49V7.81h2.49v9.41h11.46V7.81h2.52Z"/>
      <path class="cls-1" d="M121.38,10.5v-3.3h2.43v3.3h-2.43Zm0,19V13.56h2.43v15.95h-2.43Z"/>
      <path class="cls-1" d="M135.88,15.82c-1.27,.04-2.4,.4-3.39,1.07-.98,.67-1.68,1.6-2.08,2.78v9.84h-2.43V13.65h2.29v3.63c.52-1.1,1.21-1.99,2.07-2.67,.86-.68,1.76-1.07,2.71-1.18h.49c.13,0,.25,.01,.35,.03v2.35Z"/>
      <path class="cls-1" d="M144.71,29.81c-1.14,0-2.18-.22-3.11-.65-.94-.43-1.75-1.03-2.43-1.79s-1.21-1.63-1.59-2.62c-.38-.99-.56-2.04-.56-3.15,0-1.5,.33-2.86,.98-4.09,.66-1.23,1.57-2.22,2.74-2.97,1.17-.75,2.49-1.12,3.98-1.12s2.85,.38,3.98,1.14c1.13,.76,2.01,1.75,2.63,2.97,.63,1.22,.94,2.54,.94,3.96,0,.2,0,.39-.01,.58,0,.18-.02,.32-.04,.42h-12.59c.08,1.05,.36,1.97,.84,2.78s1.1,1.44,1.87,1.9c.76,.46,1.59,.69,2.47,.69s1.8-.24,2.63-.73c.83-.49,1.4-1.14,1.71-1.96l2.14,.61c-.33,.77-.82,1.47-1.46,2.08-.65,.61-1.41,1.09-2.29,1.44s-1.82,.52-2.82,.52Zm-5.18-9.13h10.45c-.08-1.05-.36-1.97-.85-2.76s-1.12-1.42-1.88-1.87c-.76-.45-1.61-.68-2.53-.68s-1.71,.23-2.47,.68c-.76,.45-1.38,1.08-1.87,1.87s-.76,1.72-.84,2.76Z"/>
    </g>
    <path class="cls-2" d="M29.27,37.75h-.78c-1.15-2.74-3.34-4.92-6.08-6.08-5.8-2.44-12.48,.28-14.92,6.08h-.35c-.14,0-.29,0-.43-.01,1.82-4.64,6.29-7.69,11.27-7.69,4.99,.01,9.46,3.07,11.29,7.71Zm-11.29-9.31c-5.79,0-10.95,3.62-12.94,9.05,.23,.07,.47,.13,.71,.17,2.51-6.76,10.02-10.2,16.78-7.69,3.6,1.34,6.43,4.2,7.73,7.82,.25-.01,.51-.03,.74-.06-1.91-5.56-7.14-9.29-13.02-9.3Zm0-1.66c-6.46,0-12.23,4.03-14.48,10.08,.21,.12,.43,.22,.65,.32,2.78-7.64,11.23-11.57,18.86-8.79,4.21,1.54,7.5,4.91,8.92,9.16,.24-.06,.47-.13,.69-.22-2.11-6.3-8.01-10.54-14.65-10.56Zm0-1.66c-6.98,0-13.26,4.25-15.86,10.73,.19,.17,.38,.33,.58,.49,3.25-8.44,12.72-12.65,21.16-9.41,4.54,1.74,8.07,5.41,9.63,10.02,.22-.12,.43-.25,.64-.38-2.34-6.65-8.69-11.45-16.14-11.45Zm0-1.66c-7.34,.01-14.01,4.3-17.07,10.98,.15,.23,.32,.45,.49,.67,3.93-9.15,14.54-13.39,23.69-9.45,4.54,1.95,8.09,5.68,9.8,10.32,.2-.17,.39-.36,.56-.55-2.81-7.21-9.75-11.95-17.48-11.96Zm3.85-1.29l11.89-11.89h.01c1.37-1.39,2.53-2.96,3.47-4.66-.08-.32-.19-.63-.32-.94-.95,1.87-2.19,3.59-3.67,5.08h0s-12.91,12.91-12.91,12.91c.15,.01,.3,.03,.45,.05-.02,0-.04,0-.06,0,.17,.01,.33,.04,.51,.07-.15-.02-.29-.04-.44-.06,6.84,.99,12.67,5.48,15.37,11.85,.17-.24,.32-.49,.46-.75-2.75-6.05-8.26-10.4-14.78-11.66Zm-1.13,.55s.04,0,.06,0c0,0,0,0,.01,0,.14,.02,.29,.04,.44,.06-.17-.03-.33-.06-.51-.07Zm0,0s.04,0,.06,0c0,0,0,0,.01,0,.14,.02,.29,.04,.44,.06-.17-.03-.33-.06-.51-.07Zm4.58-7.33l-6.46,6.46h.01l-.71,.71c.32,0,.65,.01,.98,.03l9.24-9.24c-.61,.32-1.24,.61-1.88,.85l-1.17,1.17m-2.14-.23l-.89,.9-5.81,5.81h-.01l-.81,.81c.38-.04,.75-.07,1.13-.1l.75-.85h.01l5.97-5.87,.98-1.02c-.43,.13-.86,.24-1.33,.33Zm-2.68,.35l-.75,.75-6.96,6.96c.45-.13,.9-.23,1.34-.33l.86-.86,.02-.02,5.8-5.79,.81-.81c-.38,.04-.75,.07-1.13,.1Zm-2.05,.75l.71-.71c-.33,0-.67-.01-1-.03l-.67,.67h-.01s-7.06,7.09-7.06,7.09c0,0-.02,0-.02,0l-1.48,1.48c.61-.32,1.24-.6,1.88-.85l1.17-1.17h.01s6.45-6.46,6.45-6.46m-2.99-.36h0s0,0,.01,0h0s0,0-.01,0Zm.63-.62h0C9.31,14.12,3.63,9.58,1.04,3.25c-.17,.24-.32,.49-.46,.75,2.71,6.15,8.25,10.58,14.84,11.87,0,0,0,0,.01,0L3.56,27.75c-1.41,1.4-2.6,3-3.56,4.74,.09,.31,.21,.62,.35,.91,.95-1.91,2.21-3.64,3.72-5.15l12.87-12.87c-.3-.03-.58-.09-.88-.13Zm3.23-.68c7.34,0,14.01-4.29,17.07-10.96-.14-.24-.3-.47-.48-.69-2.85,6.63-9.36,10.92-16.57,10.93-7.63,0-14.43-4.8-16.99-11.99-.2,.17-.39,.35-.56,.55,2.74,7.31,9.73,12.16,17.54,12.16ZM35.17,2.14c-.19-.17-.38-.35-.58-.51-2.36,6.16-8.33,10.56-15.3,10.56-7.08,0-13.36-4.56-15.56-11.29-.22,.12-.43,.25-.64,.38,2.35,6.96,8.87,11.64,16.21,11.64,7.17,0,13.33-4.47,15.86-10.77Zm-1.39-1.04c-.21-.13-.43-.24-.65-.35-2.09,5.86-7.64,9.77-13.85,9.78-6.4,0-12.06-4.15-14.01-10.24-.24,.06-.47,.13-.69,.22,2.05,6.39,7.99,10.73,14.71,10.75,6.49,0,12.28-4.06,14.51-10.15Zm-2.21-.87c-1.86,5.18-6.77,8.64-12.28,8.65-5.57,0-10.52-3.54-12.34-8.81-.25,0-.49,.02-.74,.06,1.86,5.65,7.14,9.47,13.09,9.47,5.84,0,11.04-3.68,12.99-9.18-.24-.08-.48-.14-.72-.19Zm-1.56-.23h-.16c-1.74,4.31-5.91,7.13-10.56,7.14-4.65,0-8.82-2.83-10.56-7.14h-.78c1.78,4.72,6.29,7.86,11.34,7.87,5.04,0,9.55-3.13,11.32-7.84-.2-.01-.4-.03-.61-.03Z"/>
  </g>
</svg>